<svg width="160" height="160" viewBox="0 0 160 160" fill="none" xmlns="http://www.w3.org/2000/svg">
<path d="M19.75 148.25H13.3333L11.9167 152.667H8L14.3333 134.417H18.8333L25.1667 152.667H21.0833L19.75 148.25ZM14.1667 145.333H18.9167L16.5833 137.833H16.5L14.1667 145.333ZM34.4167 152.917C28.9167 152.917 25.5833 149.333 25.5833 143.417C25.5833 137.583 28.9167 134 34.3333 134C38.5833 134 41.8333 136.5 42.3333 140.25H38.5C37.9167 138.333 36.4167 137.167 34.3333 137.167C31.3333 137.167 29.5 139.5 29.5 143.333C29.5 147.333 31.4167 149.75 34.5 149.75C37 149.75 38.75 148.25 38.8333 145.917V145.667H34.8333V142.917H42.5V145C42.5833 149.917 39.5833 152.917 34.4167 152.917ZM48.9167 152.667H45.0833V134.417H52.5833C56.75 134.417 59.1666 136.667 59.1666 140.25C59.1666 142.583 57.9166 144.583 55.8333 145.417L59.6667 152.667H55.4166L52 146H48.9167V152.667ZM48.9167 143.167H52.25C54.1667 143.167 55.3333 142.083 55.3333 140.25C55.3333 138.5 54.1667 137.333 52.25 137.333H49V143.167H48.9167ZM78.75 143.5C78.75 149.333 75.3333 152.917 69.9166 152.917C64.5 152.917 61.0833 149.333 61.0833 143.5C61.0833 137.667 64.5 134 69.9166 134C75.3333 134.083 78.75 137.667 78.75 143.5ZM65 143.5C65 147.333 66.9166 149.75 69.9166 149.75C72.9166 149.75 74.8333 147.333 74.8333 143.5C74.8333 139.667 72.9166 137.25 69.9166 137.25C66.9166 137.25 65 139.667 65 143.5ZM79.9166 150.75C79.9166 149.583 80.8333 148.75 81.9166 148.75C83.0833 148.75 83.9167 149.667 83.9167 150.75C83.9167 151.917 83 152.75 81.9166 152.75C80.8333 152.833 79.9166 151.917 79.9166 150.75ZM85.1667 143.5C85.1667 137.583 88.5 134.083 93.8333 134.083C98.25 134.083 101.583 136.833 101.833 141H98.0833C97.75 138.75 96 137.25 93.75 137.25C90.8333 137.25 89 139.667 89 143.5C89 147.417 90.8333 149.833 93.75 149.833C96 149.833 97.6666 148.5 98.0833 146.333H101.833C101.417 150.417 98.25 153 93.75 153C88.5 152.917 85.1667 149.417 85.1667 143.5ZM116.083 152.667H104.25V134.417H108.083V149.5H116.083V152.667ZM121.583 145.833C121.583 148.167 123 149.75 125.417 149.75C127.833 149.75 129.25 148.25 129.25 145.833V134.417H133.083V146.25C133.083 150.25 130.083 153 125.417 153C120.75 153 117.75 150.25 117.75 146.25V134.417H121.583V145.833ZM136.083 152.667V134.417H144C147.417 134.417 149.583 136.167 149.583 139C149.583 141 148.083 142.667 146.167 143V143.083C148.667 143.25 150.5 145.083 150.5 147.5C150.5 150.75 148.083 152.75 144.167 152.75H136.083V152.667ZM139.917 142H142.667C144.667 142 145.833 141.083 145.833 139.583C145.833 138.083 144.833 137.25 143 137.25H139.833V142H139.917ZM143.25 149.833C145.417 149.833 146.667 148.917 146.667 147.167C146.667 145.417 145.417 144.583 143.167 144.583H140V149.917H143.25V149.833Z" fill="black"/>
<path fill-rule="evenodd" clip-rule="evenodd" d="M58.1399 79.3453C65.4756 86.6502 92.638 103.911 122.927 88.8216L98.0837 110C98.0837 110 71.3411 109.758 58.1399 79.3453ZM50.7734 102.662L82.5319 109.234C51.8483 94.9685 49.8768 63.049 51.0684 52.7864C35.3348 81.9817 50.7734 102.662 50.7734 102.662ZM28 63.1204L43.0994 91.7105C34.6445 59.0545 58.1309 37.2446 66.8418 31.6352C34.212 38.105 28 63.1204 28 63.1204ZM45.1667 19.773L31.372 49.0082C52.43 22.5958 84.0646 27.2263 93.8114 30.763C68.9508 8.7432 45.1667 19.773 45.1667 19.773ZM89.085 6L57.5844 13.7039C91.4501 13.3999 107.967 40.8898 111.334 50.662C112.894 17.5654 89.085 6 89.085 6ZM127.629 32.0839L102.138 12.1098C123.229 38.4959 111.568 68.1436 105.91 76.802C133.057 57.6467 127.629 32.0839 127.629 32.0839ZM131.443 78.0877L130.936 45.7891C123.67 78.7319 93.075 88.6262 82.7581 89.7119C114.805 98.6164 131.443 78.0877 131.443 78.0877Z" fill="#037BFF"/>
</svg>